/* XPM */
static char * Fassustado_xpm[] = {
"41 41 469 2",
"  	c None",
". 	c #ECF1FA",
"+ 	c #B0C3EA",
"@ 	c #698DD4",
"# 	c #4C75CA",
"$ 	c #3B69C7",
"% 	c #3061C4",
"& 	c #2F5FC4",
"* 	c #3665C6",
"= 	c #4A74CD",
"- 	c #7394D9",
"; 	c #BBCCED",
"> 	c #B0C2E9",
", 	c #416EC9",
"' 	c #2456BD",
") 	c #2256BD",
"! 	c #1C51BC",
"~ 	c #174DBA",
"{ 	c #164CBB",
"] 	c #174DBB",
"^ 	c #184EBC",
"/ 	c #2357C0",
"( 	c #3162C4",
"_ 	c #3364C6",
": 	c #5A83D4",
"< 	c #C2D0EF",
"[ 	c #E8EDF9",
"} 	c #537BCE",
"| 	c #2558BE",
"1 	c #1E53BC",
"2 	c #164BBA",
"3 	c #144BBA",
"4 	c #164DBB",
"5 	c #194FBD",
"6 	c #1C51BE",
"7 	c #2457C0",
"8 	c #3161C5",
"9 	c #3363C5",
"0 	c #3464C6",
"a 	c #3566C7",
"b 	c #3A6AC9",
"c 	c #6D91DA",
"d 	c #DBE3F4",
"e 	c #3F6CC7",
"f 	c #2255BC",
"g 	c #2356BD",
"h 	c #1B50BA",
"i 	c #124AB9",
"j 	c #134AB9",
"k 	c #174DBC",
"l 	c #1A50BE",
"m 	c #1E53BF",
"n 	c #2357C1",
"o 	c #3465C7",
"p 	c #3666C8",
"q 	c #3766C8",
"r 	c #3766C7",
"s 	c #3565C7",
"t 	c #2559C3",
"u 	c #5A82D2",
"v 	c #E9EEF9",
"w 	c #2055BE",
"x 	c #2254BB",
"y 	c #2254BC",
"z 	c #1B4FBA",
"A 	c #1148B8",
"B 	c #1249BA",
"C 	c #1B50BE",
"D 	c #1F54C0",
"E 	c #2458C2",
"F 	c #3162C6",
"G 	c #3969CA",
"H 	c #3A6ACA",
"I 	c #3B6ACA",
"J 	c #3B69CA",
"K 	c #2E60C6",
"L 	c #265AC4",
"M 	c #2D5FC5",
"N 	c #4773CF",
"O 	c #6589D2",
"P 	c #2053BA",
"Q 	c #1D51BA",
"R 	c #1248B8",
"S 	c #1047B8",
"T 	c #154BBA",
"U 	c #1F53BF",
"V 	c #2357C2",
"W 	c #2E60C5",
"X 	c #3C6CCC",
"Y 	c #3E6CCC",
"Z 	c #3E6DCC",
"` 	c #3767CA",
" .	c #2F61C7",
"..	c #3061C7",
"+.	c #3566C8",
"@.	c #92ACE2",
"#.	c #CCD8F0",
"$.	c #1D51BB",
"%.	c #164BB9",
"&.	c #0E46B7",
"*.	c #1249B9",
"=.	c #2256C1",
"-.	c #2C5EC5",
";.	c #3464C8",
">.	c #3868CA",
",.	c #3D6CCB",
"'.	c #406ECD",
").	c #4170CE",
"!.	c #3F6ECE",
"~.	c #3667CB",
"{.	c #3566CA",
"].	c #3A6ACB",
"^.	c #3364C8",
"/.	c #285BC4",
"(.	c #275BC5",
"_.	c #3866C5",
":.	c #1F52B9",
"<.	c #1C50B9",
"[.	c #1046B7",
"}.	c #1F54BF",
"|.	c #2659C3",
"1.	c #3666C9",
"2.	c #4371CF",
"3.	c #4371D0",
"4.	c #3D6DCE",
"5.	c #3A6ACD",
"6.	c #3F6ECD",
"7.	c #3061C8",
"8.	c #2A5DC5",
"9.	c #2659C4",
"0.	c #7B9BDC",
"a.	c #D9E2F4",
"b.	c #1A4EB9",
"c.	c #1F52BA",
"d.	c #174CB8",
"e.	c #0C44B6",
"f.	c #0F46B8",
"g.	c #3160C2",
"h.	c #5980CF",
"i.	c #3D6BC8",
"j.	c #3162C7",
"k.	c #3B6BCC",
"l.	c #406FCE",
"m.	c #4673D0",
"n.	c #648AD9",
"o.	c #7295DC",
"p.	c #4F7BD3",
"q.	c #4270CF",
"r.	c #3768CB",
"s.	c #3162C9",
"t.	c #2C5EC6",
"u.	c #AFC2E9",
"v.	c #2153BB",
"w.	c #1E52B9",
"x.	c #1348B7",
"y.	c #0B43B6",
"z.	c #E5EBF7",
"A.	c #FEFEFE",
"B.	c #EBF0F9",
"C.	c #2358C3",
"D.	c #3162C8",
"E.	c #3C6BCC",
"F.	c #416FCF",
"G.	c #4774D1",
"H.	c #F4F7FC",
"I.	c #FCFDFD",
"J.	c #C8D5F1",
"K.	c #3F6ECF",
"L.	c #3869CC",
"M.	c #3264C9",
"N.	c #2C5FC6",
"O.	c #3163C7",
"P.	c #DEE6F7",
"Q.	c #95AEE0",
"R.	c #1E51B9",
"S.	c #1047B6",
"T.	c #F6F8FC",
"U.	c #FDFDFD",
"V.	c #F8F9FC",
"W.	c #2357C3",
"X.	c #3062C8",
"Y.	c #3666CA",
"Z.	c #537ED5",
"`.	c #FBFCFD",
" +	c #E3E9F7",
".+	c #3D6CCE",
"++	c #3868CC",
"@+	c #275AC3",
"#+	c #2559C2",
"$+	c #CEDAF2",
"%+	c #8CA6DC",
"&+	c #1D51B9",
"*+	c #0E45B5",
"=+	c #0A43B5",
"-+	c #0F47B8",
";+	c #7091D4",
">+	c #F2F5FB",
",+	c #7B9AD9",
"'+	c #295BC3",
")+	c #3365CA",
"!+	c #3869CB",
"~+	c #3B6BCD",
"{+	c #B6C8ED",
"]+	c #EEF2FA",
"^+	c #3C6BCD",
"/+	c #3263C9",
"(+	c #2B5EC5",
"_+	c #265AC3",
":+	c #2156C1",
"<+	c #C1D0EE",
"[+	c #8CA7DD",
"}+	c #1D50B9",
"|+	c #0E44B5",
"1+	c #0A42B5",
"2+	c #0F46B7",
"3+	c #134ABA",
"4+	c #144BBB",
"5+	c #275AC2",
"6+	c #3465CA",
"7+	c #3868CB",
"8+	c #3E6CCE",
"9+	c #3E6DCE",
"0+	c #3969CD",
"a+	c #2055C0",
"b+	c #8BA6DC",
"c+	c #0D44B4",
"d+	c #0841B4",
"e+	c #0E46B6",
"f+	c #295BC4",
"g+	c #3969CC",
"h+	c #3767CB",
"i+	c #2255C1",
"j+	c #1E53C0",
"k+	c #1B4FB8",
"l+	c #0C43B4",
"m+	c #0740B4",
"n+	c #1B51BD",
"o+	c #2155C0",
"p+	c #2D5FC6",
"q+	c #3364C9",
"r+	c #2358C2",
"s+	c #C1CFED",
"t+	c #8AA5DC",
"u+	c #1A4EB8",
"v+	c #0A42B3",
"w+	c #063FB3",
"x+	c #1D52BE",
"y+	c #2459C2",
"z+	c #285CC4",
"A+	c #2E60C7",
"B+	c #2B5DC6",
"C+	c #275BC4",
"D+	c #184EBD",
"E+	c #C0CFED",
"F+	c #89A4DB",
"G+	c #0940B3",
"H+	c #033DB2",
"I+	c #0A42B4",
"J+	c #144ABA",
"K+	c #174EBC",
"L+	c #2558C3",
"M+	c #275AC4",
"N+	c #1B51BE",
"O+	c #154CBB",
"P+	c #BFCEED",
"Q+	c #88A4DB",
"R+	c #0940B2",
"S+	c #406BC3",
"T+	c #ABBEE5",
"U+	c #7695D5",
"V+	c #083FB4",
"W+	c #184DBB",
"X+	c #6286D1",
"Y+	c #B2C4E9",
"Z+	c #7999D9",
"`+	c #2356C1",
" @	c #2155C1",
".@	c #5980D1",
"+@	c #7797D9",
"@@	c #5A80D0",
"#@	c #1A4FBD",
"$@	c #164DBC",
"%@	c #1349B9",
"&@	c #87A3DB",
"*@	c #1B4EB8",
"=@	c #5F82CD",
"-@	c #FCFCFD",
";@	c #F0F3F9",
">@	c #F6F7FB",
",@	c #EAEEF8",
"'@	c #1F52BC",
")@	c #8EA8DD",
"!@	c #F1F4FA",
"~@	c #F7F9FC",
"{@	c #B2C4E8",
"]@	c #809DDA",
"^@	c #F7F8FC",
"/@	c #83A0DA",
"(@	c #1148B9",
"_@	c #0E46B8",
":@	c #0F47B7",
"<@	c #BFCEEC",
"[@	c #86A1DB",
"}@	c #3A66C1",
"|@	c #EAEEF7",
"1@	c #8FA7DB",
"2@	c #0F44B4",
"3@	c #3B65C2",
"4@	c #FDFDFE",
"5@	c #F9FAFD",
"6@	c #839FDA",
"7@	c #2054BC",
"8@	c #4F78CB",
"9@	c #DEE5F4",
"0@	c #E0E7F5",
"a@	c #698BD3",
"b@	c #2457BF",
"c@	c #5F84CF",
"d@	c #F3F6FB",
"e@	c #587ECD",
"f@	c #0D45B7",
"g@	c #BECCEC",
"h@	c #7090D2",
"i@	c #0037AE",
"j@	c #0039B0",
"k@	c #003BB1",
"l@	c #1243B4",
"m@	c #ABBEE4",
"n@	c #5279CB",
"o@	c #0941B5",
"p@	c #295CBF",
"q@	c #A2B7E3",
"r@	c #4570C7",
"s@	c #1048B8",
"t@	c #436EC6",
"u@	c #1249B8",
"v@	c #BCCBEB",
"w@	c #0840B2",
"x@	c #003AB0",
"y@	c #023BB1",
"z@	c #043DB2",
"A@	c #053FB3",
"B@	c #0841B5",
"C@	c #0A43B6",
"D@	c #0A42B6",
"E@	c #0942B5",
"F@	c #053EB3",
"G@	c #033CB2",
"H@	c #043EB3",
"I@	c #BBCBEB",
"J@	c #819EDA",
"K@	c #003AB1",
"L@	c #023CB1",
"M@	c #043EB2",
"N@	c #BACAEA",
"O@	c #809DD9",
"P@	c #0039B1",
"Q@	c #013BB1",
"R@	c #023BB2",
"S@	c #023CB2",
"T@	c #013BB2",
"U@	c #013AB1",
"V@	c #B9C8E9",
"W@	c #7E9CD8",
"X@	c #1A4DB8",
"Y@	c #073FB0",
"Z@	c #0039AF",
"`@	c #023AB0",
" #	c #7D9BD8",
".#	c #1D50B8",
"+#	c #1449B3",
"@#	c #08348F",
"##	c #0A3796",
"$#	c #0038AF",
"%#	c #002C89",
"&#	c #2049A1",
"*#	c #0239AF",
"=#	c #002980",
"-#	c #1C408F",
";#	c #033AAF",
">#	c #7C9AD8",
",#	c #1549B1",
"'#	c #083694",
")#	c #0C3588",
"!#	c #06256B",
"~#	c #1F489F",
"{#	c #0037B0",
"]#	c #0038AE",
"^#	c #012F91",
"/#	c #062A78",
"(#	c #06205B",
"_#	c #274A98",
":#	c #012E8D",
"<#	c #022774",
"[#	c #082157",
"}#	c #233E7E",
"|#	c #0F42AF",
"1#	c #7999D7",
"2#	c #1448B1",
"3#	c #083592",
"4#	c #0B368F",
"5#	c #8C9FC7",
"6#	c #27427A",
"7#	c #032061",
"8#	c #1F469C",
"9#	c #013095",
"0#	c #022B81",
"a#	c #5D76AA",
"b#	c #344977",
"c#	c #092058",
"d#	c #3457A5",
"e#	c #053CB0",
"f#	c #012D8C",
"g#	c #072B77",
"h#	c #6B81AE",
"i#	c #4D5E83",
"j#	c #021B4E",
"k#	c #223D7B",
"l#	c #083DAD",
"m#	c #7290CE",
"n#	c #05338E",
"o#	c #ACBAD9",
"p#	c #DEE1E9",
"q#	c #15306C",
"r#	c #082463",
"s#	c #3056A7",
"t#	c #013097",
"u#	c #022C83",
"v#	c #8297C2",
"w#	c #EAEBF0",
"x#	c #334773",
"y#	c #071F55",
"z#	c #294C9F",
"A#	c #012E8F",
"B#	c #032978",
"C#	c #5D75A8",
"D#	c #516182",
"E#	c #031A4B",
"F#	c #0B2869",
"G#	c #BBC8E4",
"H#	c #6984BB",
"I#	c #A8B7D8",
"J#	c #DBDEE7",
"K#	c #284075",
"L#	c #041F5A",
"M#	c #042F89",
"N#	c #6A83B8",
"O#	c #D6D9E2",
"P#	c #233866",
"Q#	c #1D3569",
"R#	c #052A7A",
"S#	c #5F77AB",
"T#	c #63718E",
"U#	c #02194B",
"V#	c #B9C1D0",
"W#	c #728BBE",
"X#	c #D1D9E9",
"Y#	c #D2D6E0",
"Z#	c #03205B",
"`#	c #637EB8",
" $	c #EBECF1",
".$	c #2A4172",
"+$	c #43619F",
"@$	c #677490",
"#$	c #BAC1D0",
"$$	c #E8EBF4",
"%$	c #D4D8E1",
"&$	c #ECEFF6",
"*$	c #CDD3E0",
"                                                                                  ",
"                                                                                  ",
"                                                                                  ",
"                                                                                  ",
"                                          .                                       ",
"                                + @ # $ % & * = - ;                               ",
"                            > , ' ) ! ~ { ] ^ / ( _ : <                           ",
"                        [ } | ' 1 2 3 4 5 6 7 8 9 0 a b c                         ",
"                      d e f g h i j k l m n 8 o p q r s t u                       ",
"                    v w x y z A B 4 C D E F p G H I J K L M N                     ",
"                    O P f Q R S T 5 U V W p G X Y Z `  ...+.W @.                  ",
"                  #.$.P P %.&.*.k 6 =.-.;.>.,.'.).!.~.{.].^./.(.v                 ",
"                  _.:.P <.[.&.3 5 }.|...1.].!.2.3.4.5.6.X 7.8.9.0.                ",
"                a.b.c.P d.e.f.g.h.i.8.j.` k.l.m.n.o.p.q.r.s.t.L N                 ",
"                u.v.w.c.x.y.&.z.A.B.C.D.~.E.F.G.H.I.J.K.L.M.N./.O.P.              ",
"                Q.c.R.R.S.y.&.T.U.V.W.X.Y.k.K.Z.`.U. +.+++M.N.@+#+$+              ",
"                %+R.R.&+*+=+-+;+>+,+'+ .)+!+~+3.{+]+n.^+r./+(+_+:+<+              ",
"                [+R.R.}+|+1+2+3+4+}.5+-.j.6+7+8+9+0+~+L.6+ .8.E a+<+              ",
"                b+R.R.<.c+d+e+j ^ m E f+N.D.{.g+g+7+h+6+X.N.@+i+j+<+              ",
"                b+R.R.k+l+m+e.A 4 n+o+#+f+p+j.q+)+)+M.7.t./.r+j+6 s+              ",
"                t+R.R.u+v+w+1+&.j ^ x+a+y+z+(+p+A+A+p+B+C+E D C D+E+              ",
"                F+R.R.u+G+H+I+e.-+J+K+6 n E L+M+/./.M+#+=.}.N+k O+P+              ",
"                Q+R.R.u+R+S+T+U+V+S W+X+Y+Z+`+ @a+.@+@@@m #@$@%@*.P+              ",
"                &@R.R.*@=@-@;@>@,@'@)@-@!@~@{@7 ]@V.!@^@/@] (@_@:@<@              ",
"                [@R.R.}@|@1@2@3@4@5@^@6@7@8@9@0@^@a@b@c@d@e@f@=+y.g@              ",
"                /@R.R.R.h@i@j@k@l@m@n@o@y.f@p@q@r@s@-+&.t@u@o@m+m+v@              ",
"                6@R.R.u+w@j@j@j@x@y@z@A@m+B@1+C@C@C@D@E@B@m+F@G@H@I@              ",
"                J@R.R.u+w@j@K@j@j@x@x@L@H+M@F@w+w+w+w+A@M@H+y@x@L@N@              ",
"                O@R.R.u+w@j@K@P@j@j@j@j@K@Q@R@S@S@S@S@T@Q@x@x@j@U@V@              ",
"                W@R.R.X@Y@j@j@K@K@K@j@j@Z@Z@j@j@x@x@j@j@j@`@j@j@Q@V@              ",
"                 #R..#+#@###Z@j@K@j@j@$#%#&#*#j@K@j@j@$#=#-#;#j@Q@V@              ",
"                >#}+,#'#)#!#~#{#K@j@]#^#/#(#_#$#j@j@j@:#<#[#}#|#U@V@              ",
"                1#2#3#4#5#6#7#8#$#]#9#0#a#b#c#d#e#]#f#g#h#i#j#k#l#V@              ",
"                m#n#@#o#  p#q#r#s#t#u#v#  w#x#y#z#A#B#C#    D#E#F#G#              ",
"                H#4#I#      J#K#L#M#N#      O#P#Q#R#S#        T#U#V#              ",
"                W#X#          Y#Z#`#           $.$+$            @$#$              ",
"                $$              %$&$            *$                                ",
"                                                                                  ",
"                                                                                  ",
"                                                                                  ",
"                                                                                  "};
