/* XPM */
static char * Fmorto_xpm[] = {
"41 41 182 2",
"  	c None",
". 	c #E7E7E7",
"+ 	c #AEAEAE",
"@ 	c #656565",
"# 	c #353535",
"$ 	c #222222",
"% 	c #2B2B2B",
"& 	c #535353",
"* 	c #979797",
"= 	c #D7D7D7",
"- 	c #AFAFAF",
"; 	c #424242",
"> 	c #151515",
", 	c #515151",
"' 	c #989898",
") 	c #B5B5B5",
"! 	c #BCBCBC",
"~ 	c #BABABA",
"{ 	c #A4A4A4",
"] 	c #696969",
"^ 	c #252525",
"/ 	c #303030",
"( 	c #848484",
"_ 	c #E8E8E8",
": 	c #6F6F6F",
"< 	c #1C1C1C",
"[ 	c #757575",
"} 	c #F4F4F4",
"| 	c #FFFFFF",
"1 	c #FBFBFB",
"2 	c #9F9F9F",
"3 	c #323232",
"4 	c #313131",
"5 	c #D1D1D1",
"6 	c #E6E6E6",
"7 	c #434343",
"8 	c #DEDEDE",
"9 	c #EFEFEF",
"0 	c #929292",
"a 	c #161616",
"b 	c #A6A6A6",
"c 	c #DCDCDC",
"d 	c #2C2C2C",
"e 	c #666666",
"f 	c #9D9D9D",
"g 	c #B6B6B6",
"h 	c #4A4A4A",
"i 	c #494949",
"j 	c #0C0C0C",
"k 	c #CFCFCF",
"l 	c #939393",
"m 	c #F7F7F7",
"n 	c #FEFEFE",
"o 	c #4C4C4C",
"p 	c #E9E9E9",
"q 	c #030303",
"r 	c #F6F6F6",
"s 	c #292929",
"t 	c #A2A2A2",
"u 	c #1F1F1F",
"v 	c #FAFAFA",
"w 	c #BBBBBB",
"x 	c #DBDBDB",
"y 	c #919191",
"z 	c #C4C4C4",
"A 	c #FDFDFD",
"B 	c #7B7B7B",
"C 	c #464646",
"D 	c #646464",
"E 	c #969696",
"F 	c #5B5B5B",
"G 	c #272727",
"H 	c #3F3F3F",
"I 	c #131313",
"J 	c #B1B1B1",
"K 	c #959595",
"L 	c #0F0F0F",
"M 	c #414141",
"N 	c #212121",
"O 	c #767676",
"P 	c #FCFCFC",
"Q 	c #D3D3D3",
"R 	c #1E1E1E",
"S 	c #E3E3E3",
"T 	c #B8B8B8",
"U 	c #393939",
"V 	c #EEEEEE",
"W 	c #7C7C7C",
"X 	c #8B8B8B",
"Y 	c #DFDFDF",
"Z 	c #D9D9D9",
"` 	c #BEBEBE",
" .	c #262626",
"..	c #C6C6C6",
"+.	c #1A1A1A",
"@.	c #777777",
"#.	c #6C6C6C",
"$.	c #C9C9C9",
"%.	c #101010",
"&.	c #F9F9F9",
"*.	c #949494",
"=.	c #F2F2F2",
"-.	c #3E3E3E",
";.	c #4D4D4D",
">.	c #9E9E9E",
",.	c #E1E1E1",
"'.	c #F5F5F5",
").	c #A5A5A5",
"!.	c #0B0B0B",
"~.	c #0E0E0E",
"{.	c #C8C8C8",
"].	c #B7B7B7",
"^.	c #CECECE",
"/.	c #0A0A0A",
"(.	c #DADADA",
"_.	c #6B6B6B",
":.	c #878787",
"<.	c #CCCCCC",
"[.	c #818181",
"}.	c #070707",
"|.	c #1D1D1D",
"1.	c #232323",
"2.	c #141414",
"3.	c #CBCBCB",
"4.	c #EDEDED",
"5.	c #5D5D5D",
"6.	c #606060",
"7.	c #BDBDBD",
"8.	c #3D3D3D",
"9.	c #5F5F5F",
"0.	c #2D2D2D",
"a.	c #898989",
"b.	c #2E2E2E",
"c.	c #404040",
"d.	c #E5E5E5",
"e.	c #282828",
"f.	c #5A5A5A",
"g.	c #171717",
"h.	c #A1A1A1",
"i.	c #8F8F8F",
"j.	c #505050",
"k.	c #B4B4B4",
"l.	c #020202",
"m.	c #747474",
"n.	c #444444",
"o.	c #191919",
"p.	c #AAAAAA",
"q.	c #B0B0B0",
"r.	c #D8D8D8",
"s.	c #A9A9A9",
"t.	c #F8F8F8",
"u.	c #F3F3F3",
"v.	c #F0F0F0",
"w.	c #555555",
"x.	c #C3C3C3",
"y.	c #B2B2B2",
"z.	c #121212",
"A.	c #565656",
"B.	c #858585",
"C.	c #242424",
"D.	c #ACACAC",
"E.	c #050505",
"F.	c #343434",
"G.	c #6D6D6D",
"H.	c #545454",
"I.	c #7D7D7D",
"J.	c #C0C0C0",
"K.	c #111111",
"L.	c #040404",
"M.	c #A7A7A7",
"N.	c #2A2A2A",
"O.	c #4B4B4B",
"P.	c #A0A0A0",
"Q.	c #0D0D0D",
"R.	c #8D8D8D",
"S.	c #9A9A9A",
"T.	c #868686",
"U.	c #3A3A3A",
"V.	c #484848",
"W.	c #E4E4E4",
"X.	c #8C8C8C",
"Y.	c #ECECEC",
"                                                                                  ",
"                                                                                  ",
"                                                                                  ",
"                                                                                  ",
"                                . + @ # $ % & * =                                 ",
"                            - ; > , ' ) ! ~ { ] ^ / (                             ",
"                        _ : < [ } | | | | | | | 1 2 3 4 5                         ",
"                      6 # 7 8 | | | | | | | | | | | 9 0 a b                       ",
"                    c d e | | | | | | | | | | | | | | | f $ g                     ",
"                    h i | | | | | | | | | | | | | | | | | { j k                   ",
"                  l # m | | | | | | | | | | | | | | | | | n : o                   ",
"                p q - | | | | | | | | | | | | | | | | | | | r s !                 ",
"                t u r | | | | v w l 6 | | | | x y z A | | | | B C                 ",
"                D E | | | | A F G H I J | | K L M N O P | | | Q R S               ",
"                R 1 | | | | T U V W X j | | L Y A Z $ ` | | | n  ...              ",
"              S +.| | | | | @.#.| T $.%.| | u &.*.=.-.y | | | | ;.>.              ",
"              k  .| | | | | ,.L '.| ).!.| | ~.{.].^./.(.| | | | _.:.              ",
"              <.d | | | | | | [.}.|.1.c | | ..L R 2.* | | | | | [ (               ",
"              3.d | | | | | | | | | | | | | | | | | | | | | | | [ (               ",
"              3.d | | | | | | | | | | | | | | | | | | | | | | | [ (               ",
"              3.d | | | | &.P | | | 4.| | | r | | | | 9 | | | | [ (               ",
"              3.d | | | | 0 ] | | ) % = | n 5.6.| | ) 7 m | | | [ (               ",
"              3.d | | | | Q ~.7.n 8.h 9.| { G j z V 0.[.| | | | [ (               ",
"              3.d | | | | | a.b.#.c.d.e.f.g.h.i.s [ -.A | | | | [ (               ",
"              3.d | | | | | A j.q k | k.l.m.n v n.o.= | | | | | [ (               ",
"              3.d | | | | | | x p.| | | q.=.| | r.s.| | | | | | [ (               ",
"              3.d | | | | | | | | | | | | | | | | | | | | | | | [ (               ",
"              3.d | | | | | | | | | | | | | | | | | | | | | | | [ (               ",
"              3.d | | | | | | | | | | | | | | | | | | | | | | | [ (               ",
"              3.d | | | | | | | | | | | | | | | | | | | | | | | [ (               ",
"              3.d | | | | | | | | | | | | | | | | | | | | | | | [ (               ",
"              3.d | | | | | | | | | | | | | | | | | | | | | | | [ (               ",
"              3.d | p r.| | | | | r.t.| | | | u.c | | | | | Q v.[ (               ",
"              3.d A n.< k | | | ` a w.t.| | u.3 o.x.| | | y.z.A.@.(               ",
"              3.R -.;.B.C.{.| D.E.i.F.G.r u.H.C I.+.J.| ~ G 0 -.K.(               ",
"              <.L.b.    I.o.M.j `   6 N.O.0.M     P.Q.R.Q.S.    C.(               ",
"              6 :         T.Q.t       x U.V.W.      X.a f       Y.                ",
"                                                                                  ",
"                                                                                  ",
"                                                                                  ",
"                                                                                  "};
