/* XPM */
static char * Fverm_xpm[] = {
"41 41 312 2",
"  	c None",
". 	c #F6DADB",
"+ 	c #F2B9BB",
"@ 	c #EFA4A6",
"# 	c #F09DA0",
"$ 	c #F0A1A4",
"% 	c #F0B1B4",
"& 	c #F5D1D2",
"* 	c #F9E1DF",
"= 	c #F0A7AB",
"- 	c #E9575F",
"; 	c #E9373E",
"> 	c #EB222A",
", 	c #EC1821",
"' 	c #EA161E",
") 	c #EA171F",
"! 	c #EA1D25",
"~ 	c #ED3138",
"{ 	c #E74A52",
"] 	c #EB8C8D",
"^ 	c #F6D1D3",
"/ 	c #EE989D",
"( 	c #EA4041",
"_ 	c #ED2028",
": 	c #F01924",
"< 	c #EC1A23",
"[ 	c #ED1B24",
"} 	c #EB1A23",
"| 	c #EC1F26",
"1 	c #EB2F37",
"2 	c #EA7375",
"3 	c #F9EBEA",
"4 	c #F6DDDE",
"5 	c #EB5F66",
"6 	c #EE262E",
"7 	c #EC1A24",
"8 	c #EC1B24",
"9 	c #ED1A23",
"0 	c #EB1B23",
"a 	c #EC1D25",
"b 	c #E73A42",
"c 	c #F2BBBD",
"d 	c #F5DADA",
"e 	c #E9363B",
"f 	c #EB1B21",
"g 	c #ED1B25",
"h 	c #EB2932",
"i 	c #EDADAA",
"j 	c #F6EDE9",
"k 	c #E9474E",
"l 	c #EB1922",
"m 	c #EC1921",
"n 	c #EC252F",
"o 	c #F2B3B5",
"p 	c #E54C55",
"q 	c #ED1B23",
"r 	c #F11B26",
"s 	c #EC1B23",
"t 	c #EB1A22",
"u 	c #EC1C24",
"v 	c #E62F39",
"w 	c #F8EAE9",
"x 	c #F2B6B7",
"y 	c #EC1E25",
"z 	c #EE1B23",
"A 	c #EC1B26",
"B 	c #EB1B24",
"C 	c #EA1B24",
"D 	c #EC1C25",
"E 	c #E96B6E",
"F 	c #EB5961",
"G 	c #EC1924",
"H 	c #E91B24",
"I 	c #EC1C27",
"J 	c #EE1A24",
"K 	c #E91D25",
"L 	c #EB1C25",
"M 	c #EC1922",
"N 	c #EB2B35",
"O 	c #F6D9D9",
"P 	c #F1CFCF",
"Q 	c #E91A24",
"R 	c #EC1A25",
"S 	c #EE1B1F",
"T 	c #E91821",
"U 	c #EC2F3A",
"V 	c #F8CED1",
"W 	c #FAE0DF",
"X 	c #F8D9D8",
"Y 	c #EA4E54",
"Z 	c #EA1827",
"` 	c #EE1925",
" .	c #ED8F93",
"..	c #FBE2E0",
"+.	c #F9E1E3",
"@.	c #ED8F91",
"#.	c #E91E25",
"$.	c #EA1920",
"%.	c #E68E92",
"&.	c #E37275",
"*.	c #EE1B24",
"=.	c #EC4049",
"-.	c #F8E2E3",
";.	c #FAFCF9",
">.	c #FDFDFC",
",.	c #F9FDFB",
"'.	c #F9FBF9",
").	c #ED7E88",
"!.	c #EC1E26",
"~.	c #EC1A22",
"{.	c #ED2630",
"].	c #F4CECB",
"^.	c #FAFCFB",
"/.	c #FDFDFD",
"(.	c #FCFDFC",
"_.	c #F8F9FA",
":.	c #F4B6BD",
"<.	c #EB1F27",
"[.	c #E2323A",
"}.	c #E43D42",
"|.	c #EB1A25",
"1.	c #EA1921",
"2.	c #EE1D27",
"3.	c #F8E1E3",
"4.	c #FEFCFC",
"5.	c #FCFDF9",
"6.	c #F6F8FB",
"7.	c #2F5A91",
"8.	c #0C3F7E",
"9.	c #E4E7EE",
"0.	c #EF3333",
"a.	c #EE1928",
"b.	c #E86B6D",
"c.	c #FCFDFD",
"d.	c #FEFDFC",
"e.	c #8099C0",
"f.	c #033983",
"g.	c #A4B7D0",
"h.	c #EF757B",
"i.	c #E81420",
"j.	c #F3DDDC",
"k.	c #E7353B",
"l.	c #EB2E37",
"m.	c #FAEBEB",
"n.	c #FEFEFE",
"o.	c #FCFCFC",
"p.	c #7992B8",
"q.	c #073C89",
"r.	c #033B84",
"s.	c #476EA6",
"t.	c #E43C42",
"u.	c #F4CECD",
"v.	c #FCFDFE",
"w.	c #FBFDFC",
"x.	c #E5EAEE",
"y.	c #0B4089",
"z.	c #083E85",
"A.	c #13438A",
"B.	c #E9B4B9",
"C.	c #EFC1C3",
"D.	c #F8E8E8",
"E.	c #E93338",
"F.	c #EF1922",
"G.	c #EC2C37",
"H.	c #FCEBEB",
"I.	c #839AC2",
"J.	c #073D86",
"K.	c #053B86",
"L.	c #547BAE",
"M.	c #EA3B40",
"N.	c #F5C3C5",
"O.	c #FDFEFD",
"P.	c #F0F0F3",
"Q.	c #104587",
"R.	c #093B85",
"S.	c #194B8D",
"T.	c #EFB2B6",
"U.	c #E91820",
"V.	c #E9AFB0",
"W.	c #F8E9E9",
"X.	c #E93339",
"Y.	c #ED1E27",
"Z.	c #F7D0D2",
"`.	c #FDFDFB",
" +	c #F9FEFE",
".+	c #EFF5F4",
"++	c #B0BED8",
"@+	c #A0B4CF",
"#+	c #D9CAD2",
"$+	c #E9312F",
"%+	c #EC535E",
"&+	c #FCFAFA",
"*+	c #FBFCFE",
"=+	c #BFCADD",
"-+	c #869EC3",
";+	c #CFDAE4",
">+	c #EE5A5E",
",+	c #EA1722",
"'+	c #EBAAAD",
")+	c #E93239",
"!+	c #EA1E27",
"~+	c #F8D5D6",
"{+	c #FBFEFE",
"]+	c #FAFCFE",
"^+	c #F9F1EE",
"/+	c #F08385",
"(+	c #EC1825",
"_+	c #EA232A",
":+	c #F6A7AF",
"<+	c #FCFCFD",
"[+	c #FCFEFD",
"}+	c #FCFBF8",
"|+	c #F29EA2",
"1+	c #EA191F",
"2+	c #EA1822",
"3+	c #EBAAAE",
"4+	c #EA1C22",
"5+	c #EB2431",
"6+	c #E44F5A",
"7+	c #EEA6A7",
"8+	c #EC7B81",
"9+	c #EF3337",
"0+	c #EA1723",
"a+	c #EA1B20",
"b+	c #ED1B21",
"c+	c #EB1C27",
"d+	c #EE1F29",
"e+	c #E94041",
"f+	c #F19CA3",
"g+	c #ED9295",
"h+	c #EA3038",
"i+	c #ED212A",
"j+	c #EA1922",
"k+	c #EAAAAD",
"l+	c #ED1A24",
"m+	c #EAA9AD",
"n+	c #F6E5E6",
"o+	c #E83237",
"p+	c #EB1921",
"q+	c #F7E6E6",
"r+	c #E81920",
"s+	c #EAABAD",
"t+	c #F7E8E8",
"u+	c #E9323A",
"v+	c #EA1A22",
"w+	c #E12B32",
"x+	c #D75058",
"y+	c #E1363D",
"z+	c #EF1B24",
"A+	c #E12F38",
"B+	c #D35356",
"C+	c #DE3E43",
"D+	c #E81A21",
"E+	c #ED1A22",
"F+	c #ED1921",
"G+	c #EB1B25",
"H+	c #ED1C25",
"I+	c #E91A21",
"J+	c #DF3E44",
"K+	c #D94B51",
"L+	c #E41E25",
"M+	c #EA1923",
"N+	c #EBAFB0",
"O+	c #F8ECEC",
"P+	c #E9333A",
"Q+	c #EC1923",
"R+	c #DA353D",
"S+	c #EDD7D9",
"T+	c #F0D7D8",
"U+	c #DE2830",
"V+	c #ED1922",
"W+	c #E71B20",
"X+	c #E22E33",
"Y+	c #ECCFCE",
"Z+	c #DC696C",
"`+	c #ED1925",
" @	c #EC1C22",
".@	c #DD444A",
"+@	c #F4EBEB",
"@@	c #E0ACAB",
"#@	c #E51F28",
"$@	c #ED1B22",
"%@	c #EBB4B6",
"&@	c #E13B42",
"*@	c #EB1923",
"=@	c #DC2B36",
"-@	c #EACDCE",
";@	c #E1B9B7",
">@	c #E4252D",
",@	c #E31C24",
"'@	c #E09C9F",
")@	c #F1E5E4",
"!@	c #DC373F",
"~@	c #EA1A20",
"{@	c #DE353E",
"]@	c #EAD3D6",
"^@	c #DE8589",
"/@	c #E81A24",
"(@	c #E8151E",
"_@	c #EDCBCB",
":@	c #D8A09F",
"<@	c #CA3139",
"[@	c #EDE4E3",
"}@	c #DEAAAC",
"|@	c #CD2227",
"1@	c #D48083",
"2@	c #F2ECE9",
"3@	c #CC3E46",
"4@	c #C9353C",
"5@	c #ECD5D8",
"6@	c #CC7171",
"7@	c #C83D44",
"                                                                                  ",
"                                                                                  ",
"                                                                                  ",
"                                                                                  ",
"                                                                                  ",
"                                  . + @ # $ % &                                   ",
"                            * = - ; > , ' ) ! ~ { ] ^                             ",
"                          / ( _ : < [ [ [ [ < [ } | 1 2 3                         ",
"                      4 5 6 7 8 7 [ [ [ [ [ < < 8 9 0 a b c                       ",
"                    d e < [ [ [ [ [ [ [ [ [ [ [ [ [ [ f g h i                     ",
"                  j k l < [ [ [ [ [ [ [ [ [ [ [ [ [ [ } < m n o                   ",
"                  p q r [ [ 9 8 s s s < [ [ [ [ [ [ [ s t u 0 v w                 ",
"                x y < < [ [ } [ z } A 8 [ [ [ [ [ [ [ g B C } D E                 ",
"                F < < < [ [ G s H I J 9 [ [ [ [ [ [ [ B K L M } N O               ",
"              P Q [ < s R S T U V W X Y Z ` 8 [ L 9 t  ...+.@.#.$.%.              ",
"              &.*.[ [ q q 8 =.-.;.>.,.'.).!.< [ ~.{.].^./.(._.:.<.[.              ",
"              }.|.[ [ s 1.2.3.4.5.6.7.8.9.0.7 [ a.b.c./.d.e.f.g.h.i.j.            ",
"              k.< [ [ [ } l.m.n.o.p.q.r.s.t.9 [ ' u.v.w.x.y.z.A.B.T C.            ",
"            D.E.M [ [ 7 F.G.H.n./.I.J.K.L.M.9 [ l N.O./.P.Q.R.S.T.U.V.            ",
"            W.X.9 [ [ s t Y.Z.`. +.+++@+#+$+7 [ |.%+&+/.*+=+-+;+>+,+'+            ",
"            W.)+9 [ [ s s 9 !+~+{+/.]+^+/+(+< [ M _+:+<+c.[+}+|+1+2+3+            ",
"            W.)+9 [ [ < < < 4+5+6+7+8+9+0+a+< [ b+c+d+e+f+g+h+i+0 j+k+            ",
"            W.)+9 [ [ [ < < < < 9 < [ 8 < l+8 [ [ q 7 < 9 l+< < [ $.m+            ",
"            W.)+9 [ [ [ [ [ [ [ [ [ [ [ [ [ [ [ [ [ [ [ [ [ [ [ [ $.m+            ",
"            W.)+9 [ [ [ [ [ [ [ [ [ [ [ [ [ [ [ [ [ [ [ [ [ [ [ [ $.m+            ",
"            W.)+9 [ [ [ [ [ [ [ [ [ [ [ [ [ [ [ [ [ [ [ [ [ [ [ [ $.m+            ",
"            W.)+9 [ [ [ [ [ [ [ [ [ [ [ [ [ [ [ [ [ [ [ [ [ [ [ [ $.m+            ",
"            W.)+9 [ [ [ [ [ [ [ [ [ [ [ [ [ [ [ [ [ [ [ [ [ [ [ [ $.m+            ",
"            W.)+9 [ [ [ [ [ [ [ [ [ [ [ [ [ [ [ [ [ [ [ [ [ [ [ [ $.m+            ",
"            D.X.< [ [ [ [ [ [ [ [ [ [ [ [ [ [ [ [ [ [ [ < [ [ [ s $.k+            ",
"            n+o+~.[ [ [ < < < [ [ [ [ < [ < [ [ [ [ [ < < < [ [ s p+k+            ",
"            q+E.9 [ [ [ < < < [ [ [ [ < < [ < [ [ [ [ < < < [ [ q r+s+            ",
"            t+u+t s v+w+x+y+Q ~.} z+C A+B+C+D+E+F+G+H+I+J+K+L+J 9 M+N+            ",
"            O+P+Q+m R+S+  T+U+V+W+E+X+Y+    Z+`+7  @l .@+@  @@#@$@1.%@            ",
"              &@*@=@-@      ;@>@V+,@'@      )@!@Q+~@{@]@      ^@/@(@_@            ",
"              :@<@[@          }@|@1@          2@3@4@5@          6@7@              ",
"                                                                                  ",
"                                                                                  ",
"                                                                                  ",
"                                                                                  ",
"                                                                                  "};
