/* XPM */
static xpm_row_t const pacmanLeft[] = {
"36 36 179 2",
"  	c None",
". 	c #1C0A00",
"+ 	c #1C0B00",
"@ 	c #180700",
"# 	c #000000",
"$ 	c #070200",
"% 	c #5E3B00",
"& 	c #9C6600",
"* 	c #AB7200",
"= 	c #AB7300",
"- 	c #AA7300",
"; 	c #AA7200",
"> 	c #A76D00",
", 	c #865500",
"' 	c #2A1600",
") 	c #010000",
"! 	c #100600",
"~ 	c #F5A700",
"{ 	c #FFBF00",
"] 	c #FFC100",
"^ 	c #FFC000",
"/ 	c #FFB600",
"( 	c #C78400",
"_ 	c #3D2300",
": 	c #020000",
"< 	c #432700",
"[ 	c #653F00",
"} 	c #6E4400",
"| 	c #6B4300",
"1 	c #784C00",
"2 	c #C07E00",
"3 	c #FFB400",
"4 	c #FFC600",
"5 	c #FFC800",
"6 	c #FFC700",
"7 	c #EC9D00",
"8 	c #915E00",
"9 	c #6D4300",
"0 	c #6C4400",
"a 	c #583600",
"b 	c #261100",
"c 	c #140600",
"d 	c #784B00",
"e 	c #DE9400",
"f 	c #FFAD00",
"g 	c #FEAC00",
"h 	c #FFAE00",
"i 	c #FFB700",
"j 	c #FFC300",
"k 	c #FFBE00",
"l 	c #FFB100",
"m 	c #FDAC00",
"n 	c #FEAD00",
"o 	c #AF7500",
"p 	c #3B2100",
"q 	c #341B00",
"r 	c #563300",
"s 	c #A86D00",
"t 	c #FCAF00",
"u 	c #FFCA00",
"v 	c #FFC900",
"w 	c #D79000",
"x 	c #764A00",
"y 	c #402300",
"z 	c #281300",
"A 	c #341C00",
"B 	c #956200",
"C 	c #D08B00",
"D 	c #F7A700",
"E 	c #FFC500",
"F 	c #FFB200",
"G 	c #E49800",
"H 	c #BA7A00",
"I 	c #653E00",
"J 	c #0C0300",
"K 	c #180900",
"L 	c #5A3500",
"M 	c #CC8900",
"N 	c #F3A900",
"O 	c #915D00",
"P 	c #2F1800",
"Q 	c #0E0300",
"R 	c #0B0200",
"S 	c #5A3700",
"T 	c #946100",
"U 	c #BF7F00",
"V 	c #F8AB00",
"W 	c #FFCB00",
"X 	c #FFB900",
"Y 	c #DC9100",
"Z 	c #A56C00",
"` 	c #311B00",
" .	c #0B0300",
"..	c #7C4F00",
"+.	c #EC9F00",
"@.	c #FFC400",
"#.	c #FAB100",
"$.	c #B87C00",
"%.	c #3E2400",
"&.	c #0A0200",
"*.	c #6A4200",
"=.	c #B87A00",
"-.	c #C78500",
";.	c #C48300",
">.	c #CB8900",
",.	c #EDA100",
"'.	c #FFBC00",
").	c #FFC200",
"!.	c #C68600",
"~.	c #412600",
"{.	c #351C00",
"].	c #361E00",
"^.	c #4E2D00",
"/.	c #A96B00",
"(.	c #FFCE00",
"_.	c #FFCC00",
":.	c #C38300",
"<.	c #3B2200",
"[.	c #130600",
"}.	c #774A00",
"|.	c #D38E00",
"1.	c #ECA500",
"2.	c #EAA400",
"3.	c #E9A400",
"4.	c #E9A300",
"5.	c #F4AB00",
"6.	c #FFBB00",
"7.	c #D89000",
"8.	c #6E4500",
"9.	c #341E00",
"0.	c #271300",
"a.	c #422400",
"b.	c #643D00",
"c.	c #6C4200",
"d.	c #694100",
"e.	c #905C00",
"f.	c #ED9C00",
"g.	c #FFAF00",
"h.	c #D99100",
"i.	c #B37600",
"j.	c #674000",
"k.	c #080200",
"l.	c #422600",
"m.	c #C88300",
"n.	c #F4A900",
"o.	c #7E5100",
"p.	c #281200",
"q.	c #A36A00",
"r.	c #DA9200",
"s.	c #FFB800",
"t.	c #FBB200",
"u.	c #835300",
"v.	c #180A00",
"w.	c #241000",
"x.	c #F7AA00",
"y.	c #FBB100",
"z.	c #835200",
"A.	c #573500",
"B.	c #B77A00",
"C.	c #D99200",
"D.	c #D99300",
"E.	c #DD9600",
"F.	c #F0A500",
"G.	c #FFBD00",
"H.	c #130900",
"I.	c #4A2C00",
"J.	c #593600",
"K.	c #9B6400",
"L.	c #190B00",
"M.	c #1B0C00",
"N.	c #1A0B00",
"O.	c #2E1800",
"P.	c #805100",
"Q.	c #F6A900",
"R.	c #9E6700",
"S.	c #A46A00",
"T.	c #AA7000",
"U.	c #D18B00",
"V.	c #FFB500",
"                        . . + + + + + + . @                             ",
"                # # $ % & * = - ; ; - = > , ' # # #                     ",
"              ) ) ) ! , ~ { ] ^ ^ ^ ^ ] / ( _ : ) ) )                   ",
"            < [ } | 1 2 3 4 5 6 6 6 6 5 ^ 7 8 9 0 | a b                 ",
"        # c d e f g h i j 6 6 6 6 6 6 6 4 k l m n ~ o p )               ",
"        q r s t u 5 6 6 6 6 6 6 6 6 6 6 6 6 6 6 v ] w x y z             ",
"    # A B C D k 5 5 6 6 6 6 6 6 6 6 6 6 6 6 6 5 5 E F G H I J           ",
"    K L M k 5 4 6 6 6 6 6 6 6 6 6 6 6 6 6 6 6 6 6 6 4 6 N O P Q         ",
"R S T U V 6 W 6 6 6 6 6 6 6 6 6 6 6 6 6 6 6 6 6 6 6 5 u X Y Z 1 `       ",
" ...+.i k @.4 4 6 6 6 6 6 6 6 6 6 6 6 6 6 6 6 6 6 6 6 6 @.{ #.$.%.#     ",
"&.*.=.-.;.>.,.'.6 6 6 6 6 6 6 6 6 6 6 6 6 6 6 6 6 6 6 6 6 W ).!.~.#     ",
"  z {.].q ^./.F (._._._._.W v 6 6 6 6 6 6 6 6 6 6 6 6 6 6 W ] :.<.#     ",
"    # # # [.}.|.1.2.3.3.4.5.6.E 6 6 6 6 6 6 6 6 6 6 6 6 6 u ] 7.8.9.0.  ",
"            a.b.c.*.*.*.d.e.f.] v 6 6 6 6 6 6 6 6 6 6 6 6 5 @.g.h.i.j.R ",
"              $ $ $ $ $ k.l.m.3 ).E 6 6 6 6 6 6 6 6 6 6 6 6 6 @.] n.o.J ",
"                # # # # # p.o.q.r.s.6 6 6 6 6 6 6 6 6 6 6 6 6 5 u t.u.J ",
"                            v.w.e.x.4 6 4 4 6 6 6 6 6 6 6 6 6 6 v y.z.J ",
"                            # # A.B.C.D.E.F.G.6 6 6 6 6 6 6 6 6 5 y.z.J ",
"                            # # H.<.I.I.J.K.n 5 6 6 6 6 6 6 6 6 5 y.z.J ",
"                            L.M.M.M.M.N.O.P.Q.5 6 6 6 6 6 6 6 6 v y.z.J ",
"                # # # # # p.o.R.S.q.q.q.T.U.s.5 6 6 6 6 6 6 6 5 u t.u.J ",
"              $ $ $ $ $ k.l.m.V.{ k k k { ] 4 6 6 6 6 6 6 6 6 @.] n.o.J ",
"            a.b.c.*.*.*.d.e.f.] v v v v v 5 5 6 6 6 6 6 6 5 @.g.h.i.j.R ",
"    # # # [.}.|.1.2.3.3.4.5.6.E 6 6 6 6 6 6 6 6 6 6 6 6 6 u ] 7.8.9.0.  ",
"  z {.].q ^./.F (._._._._.W v 6 6 6 6 6 6 6 6 6 6 6 6 6 6 W ] :.<.#     ",
"&.*.=.-.;.>.,.'.6 6 6 6 6 6 6 6 6 6 6 6 6 6 6 6 6 6 6 6 6 W ).!.~.#     ",
" ...+.i k @.4 4 6 6 6 6 6 6 6 6 4 6 6 6 6 6 6 6 6 6 6 6 @.{ #.$.%.#     ",
"R S T U V 6 W 6 6 6 6 6 6 6 6 6 6 6 6 4 6 6 6 6 6 6 5 u X Y Z 1 `       ",
"    K L M k 5 4 6 6 6 6 6 6 6 6 6 6 6 6 6 6 6 6 6 6 4 6 N O P Q         ",
"    # A B C D k 5 5 6 6 6 6 6 6 6 6 6 6 6 6 6 5 5 E F G H I J           ",
"        q r s t u 5 6 6 6 6 6 6 6 6 6 6 6 6 6 6 v ] w x y z             ",
"        # c d e f g h i j 6 6 6 6 6 6 6 4 k l m n ~ o p )               ",
"            < [ } | 1 2 3 4 5 6 6 6 6 5 ^ 7 8 9 0 | a b                 ",
"              ) ) ) ! , ~ { ] ^ ^ ^ ^ ] / ( _ : ) ) )                   ",
"                # # $ % & * = - ; ; - = > , ' # # #                     ",
"                        . . + + + + + + . @                             "};
