/* XPM */
static xpm_row_t const pacmanR[]= {
"36 36 209 2",
"  	c None",
". 	c #1B1000",
"+ 	c #1E1200",
"@ 	c #1E1300",
"# 	c #000000",
"$ 	c #020100",
"% 	c #2A1C00",
"& 	c #7A5600",
"* 	c #986D00",
"= 	c #9C7200",
"- 	c #9B7200",
"; 	c #9B7100",
"> 	c #9C7100",
", 	c #8E6600",
"' 	c #563D00",
") 	c #0E0900",
"! 	c #050300",
"~ 	c #060400",
"{ 	c #050400",
"] 	c #070400",
"^ 	c #3A2800",
"/ 	c #B68300",
"( 	c #EFB500",
"_ 	c #F7C000",
": 	c #F6BF00",
"< 	c #F5BE00",
"[ 	c #E1A500",
"} 	c #150E00",
"| 	c #050200",
"1 	c #060300",
"2 	c #261800",
"3 	c #513900",
"4 	c #624500",
"5 	c #634600",
"6 	c #634500",
"7 	c #845E00",
"8 	c #D89C00",
"9 	c #FCBF00",
"0 	c #FFC700",
"a 	c #FFC600",
"b 	c #FFC500",
"c 	c #F7B300",
"d 	c #AF7D00",
"e 	c #6D4D00",
"f 	c #644600",
"g 	c #5C4100",
"h 	c #3F2B00",
"i 	c #382600",
"j 	c #A07400",
"k 	c #EAAB00",
"l 	c #E9AA00",
"m 	c #EFAF00",
"n 	c #FABD00",
"o 	c #FEC200",
"p 	c #F5B600",
"q 	c #EBAC00",
"r 	c #EAAA00",
"s 	c #EDAC00",
"t 	c #CB9300",
"u 	c #6D4C00",
"v 	c #180F00",
"w 	c #281A00",
"x 	c #3C2800",
"y 	c #6B4B00",
"z 	c #C58F00",
"A 	c #FEC000",
"B 	c #FFC800",
"C 	c #FFC900",
"D 	c #E9AE00",
"E 	c #996D00",
"F 	c #4F3600",
"G 	c #322100",
"H 	c #120B00",
"I 	c #5C4000",
"J 	c #A97900",
"K 	c #D19700",
"L 	c #F1B100",
"M 	c #FFC400",
"N 	c #FCBD00",
"O 	c #E3A500",
"P 	c #BE8A00",
"Q 	c #886200",
"R 	c #322200",
"S 	c #130B00",
"T 	c #2E1E00",
"U 	c #845D00",
"V 	c #E0A700",
"W 	c #FCC600",
"X 	c #FEC500",
"Y 	c #FDC700",
"Z 	c #F5BD00",
"` 	c #BB8800",
" .	c #523800",
"..	c #1B1100",
"+.	c #302100",
"@.	c #966C00",
"#.	c #C99000",
"$.	c #F7B800",
"%.	c #FFCA00",
"&.	c #E5A900",
"*.	c #AE7E00",
"=.	c #876100",
"-.	c #533A00",
";.	c #110900",
">.	c #3B2900",
",.	c #A87B00",
"'.	c #E8B000",
").	c #F8BE00",
"!.	c #FEC300",
"~.	c #FFC300",
"{.	c #FFBD00",
"].	c #F7B600",
"^.	c #D99E00",
"/.	c #715000",
"(.	c #110A00",
"_.	c #3D2A00",
":.	c #B58500",
"<.	c #FAC100",
"[.	c #F9BB00",
"}.	c #DAA000",
"|.	c #BA8800",
"1.	c #B38200",
"2.	c #B68400",
"3.	c #A87900",
"4.	c #614400",
"5.	c #100900",
"6.	c #382700",
"7.	c #B28200",
"8.	c #F9C000",
"9.	c #FFCB00",
"0.	c #FFCD00",
"a.	c #ECB100",
"b.	c #996B00",
"c.	c #483100",
"d.	c #342300",
"e.	c #332200",
"f.	c #271A00",
"g.	c #322300",
"h.	c #644700",
"i.	c #C68F00",
"j.	c #FBC000",
"k.	c #FABA00",
"l.	c #E1A900",
"m.	c #D7A200",
"n.	c #D7A300",
"o.	c #D8A300",
"p.	c #DAA400",
"q.	c #C18D00",
"r.	c #6C4B00",
"s.	c #170E00",
"t.	c #020000",
"u.	c #5E4200",
"v.	c #A37500",
"w.	c #C79000",
"x.	c #EDAE00",
"y.	c #FCC000",
"z.	c #D99B00",
"A.	c #835C00",
"B.	c #604300",
"C.	c #624400",
"D.	c #5B3F00",
"E.	c #3E2900",
"F.	c #120A00",
"G.	c #735200",
"H.	c #E1A700",
"I.	c #FDC000",
"J.	c #FFC000",
"K.	c #FDBE00",
"L.	c #FDBD00",
"M.	c #F2B400",
"N.	c #B68200",
"O.	c #3E2A00",
"P.	c #0F0900",
"Q.	c #775400",
"R.	c #E9B100",
"S.	c #F4B700",
"T.	c #BF8A00",
"U.	c #9B6F00",
"V.	c #946A00",
"W.	c #956A00",
"X.	c #906700",
"Y.	c #281900",
"Z.	c #775300",
"`.	c #E8AF00",
" +	c #FEC700",
".+	c #E3A700",
"++	c #745200",
"@+	c #2D1E00",
"#+	c #1D1300",
"$+	c #1E1400",
"%+	c #1C1300",
"&+	c #8D6400",
"*+	c #523900",
"=+	c #453000",
"-+	c #181100",
";+	c #FBBC00",
">+	c #DDA400",
",+	c #CB9500",
"'+	c #C79200",
")+	c #C79100",
"!+	c #A77900",
"~+	c #503800",
"{+	c #010000",
"]+	c #E4A800",
"^+	c #251700",
"/+	c #1B1200",
"(+	c #C89100",
"_+	c #FFC100",
":+	c #F3B300",
"                            . + @ @ @ @ @ @ + +                         ",
"                    # # $ % & * = - ; ; - = > , ' ) # #                 ",
"                  ! ~ { ] ^ / ( _ : : : : _ < [ & } | 1 1               ",
"                2 3 4 5 6 7 8 9 0 a a a a 0 b c d e 4 f g h             ",
"              1 i j [ k l m n b a a a a a a a o p q r s t u v #         ",
"            w x y z A B a a a a a a a a a a a a a a 0 C D E F G         ",
"          H I J K L M 0 0 a a a a a a a a a a a a a 0 0 N O P Q R #     ",
"        S T U V W X a a a a a a a a a a a a a a a a a a b Y Z `  ...    ",
"      +.e @.#.$.C 0 a a a a a a b a a a a a a a a a a a a %.a &.*.=.-.;.",
"    # >.,.'.).!.a a a a a a a a a a a b a a a a a a a a b b ~.{.].^./.(.",
"    # _.:.<.%.a a a a a a a a a a a a a a a a a a a a a [.}.|.1.2.3.4.5.",
"    # 6.7.8.%.a a a a a a a a a a a a a a B %.9.9.9.9.0.a.b.c.G d.e.w   ",
"  f.g.h.i.j.C a a a a a a a a a a a a a M k.l.m.n.n.o.p.q.r.s.# t.t.    ",
";.u.v.w.x.~.0 a a a a a a 0 0 B B B B B y.z.A.B.4.4.4.C.D.E.            ",
"F.G.H.I.!.a a a a a a a a b J.K.N N L.K.M.N.O.P.) ) ) ) )               ",
"F.Q.R.C 0 a a a a a a a 0 S.T.U.V.V.V.W.X.G.Y.# # # # #                 ",
"F.Z.`.B a a a a a a a a  +.+++@+#+$+$+$+$+%+                            ",
"F.Z.`.0 a a a a a a a a  +k &+*+=+=+6.-+# #                             ",
"F.Z.`.0 a a a a a a a a a ;+>+,+'+)+!+~+{+#                             ",
"F.Z.`.B a a a a a a a a a a b b a b ]+A.^+/+                            ",
"F.Q.R.C 0 a a a a a a a a a a a a a S.(+V.G.Y.# # # # #                 ",
"F.G.H.I.!.a a a a a a a a a a a a a M _+:+N.O.P.) ) ) ) )               ",
";.u.v.w.x.~.0 a a a a a a a a a a a a B y.z.A.B.4.4.4.C.D.E.            ",
"  f.g.h.i.j.C a a a a a a a a a a a a a M k.l.m.n.n.o.p.q.r.s.# t.t.    ",
"    # 6.7.8.%.a a a a a a a a a a a a a a B %.9.9.9.9.0.a.b.c.G d.e.w   ",
"    # _.:.<.%.a a a a a a a a a a a a a a a a a a a a a [.}.|.1.2.3.4.5.",
"    # >.,.'.).!.a a a a a a a a a a a a a a a a a a a a b b ~.{.].^./.(.",
"      +.e @.#.$.C 0 a a a a a a a a a a a a a a a a a a a %.a &.*.=.-.;.",
"        S T U V W X a a a a a a a a a a a a a a a a a a b Y Z `  ...    ",
"          H I J K L M 0 0 a a a a a a a a a a a a a 0 0 N O P Q R #     ",
"            w x y z A B a a a a a a a a a a a a a a 0 C D E F G         ",
"              1 i j [ k l m n b a a a a a a a o p q r s t u v #         ",
"                2 3 4 5 6 7 8 9 0 a a a a 0 b c d e 4 f g h             ",
"                  ! ~ { ] ^ / ( _ : : : : _ < [ & } | 1 1               ",
"                    # # $ % & * = - ; ; - = > , ' ) # #                 ",
"                            . + @ @ @ @ @ @ + +                         "};
