/* XPM */
static xpm_row_t const pacmanDown[] = {
"36 36 179 2",
"  	c None",
". 	c #0B0200",
"+ 	c #0C0300",
"@ 	c #271300",
"# 	c #674000",
"$ 	c #7E5100",
"% 	c #835300",
"& 	c #835200",
"* 	c #000000",
"= 	c #341E00",
"- 	c #B37600",
"; 	c #F4A900",
"> 	c #FBB200",
", 	c #FBB100",
"' 	c #311B00",
") 	c #3E2400",
"! 	c #412600",
"~ 	c #3B2200",
"{ 	c #6E4500",
"] 	c #D99100",
"^ 	c #FFC100",
"/ 	c #FFCA00",
"( 	c #FFC900",
"_ 	c #FFC800",
": 	c #0E0300",
"< 	c #784C00",
"[ 	c #B87C00",
"} 	c #C68600",
"| 	c #C38300",
"1 	c #D89000",
"2 	c #FFAF00",
"3 	c #FFC400",
"4 	c #FFC700",
"5 	c #2F1800",
"6 	c #A56C00",
"7 	c #FAB100",
"8 	c #FFC200",
"9 	c #281300",
"0 	c #653E00",
"a 	c #915D00",
"b 	c #DC9100",
"c 	c #FFBF00",
"d 	c #FFCB00",
"e 	c #010000",
"f 	c #402300",
"g 	c #BA7A00",
"h 	c #F3A900",
"i 	c #FFB900",
"j 	c #261100",
"k 	c #3B2100",
"l 	c #764A00",
"m 	c #E49800",
"n 	c #583600",
"o 	c #AF7500",
"p 	c #D79000",
"q 	c #FFB200",
"r 	c #FFC600",
"s 	c #6B4300",
"t 	c #F5A700",
"u 	c #FFC500",
"v 	c #6C4400",
"w 	c #FEAD00",
"x 	c #020000",
"y 	c #6D4300",
"z 	c #FDAC00",
"A 	c #2A1600",
"B 	c #3D2300",
"C 	c #915E00",
"D 	c #FFB100",
"E 	c #FFBD00",
"F 	c #F6A900",
"G 	c #FFB800",
"H 	c #180700",
"I 	c #865500",
"J 	c #C78400",
"K 	c #EC9D00",
"L 	c #FFBE00",
"M 	c #F0A500",
"N 	c #9B6400",
"O 	c #805100",
"P 	c #D18B00",
"Q 	c #1C0A00",
"R 	c #A76D00",
"S 	c #FFB600",
"T 	c #FFC000",
"U 	c #DD9600",
"V 	c #593600",
"W 	c #2E1800",
"X 	c #AA7000",
"Y 	c #1C0B00",
"Z 	c #AB7300",
"` 	c #D99300",
" .	c #4A2C00",
"..	c #1A0B00",
"+.	c #A36A00",
"@.	c #AA7300",
"#.	c #D99200",
"$.	c #1B0C00",
"%.	c #AA7200",
"&.	c #F7AA00",
"*.	c #B77A00",
"=.	c #DA9200",
"-.	c #905C00",
";.	c #573500",
">.	c #130900",
",.	c #A46A00",
"'.	c #FFB400",
").	c #241000",
"!.	c #9E6700",
"~.	c #FFB500",
"{.	c #FFBB00",
"].	c #ED9C00",
"^.	c #C88300",
"/.	c #180A00",
"(.	c #190B00",
"_.	c #AB7200",
":.	c #F4AB00",
"<.	c #422600",
"[.	c #281200",
"}.	c #9C6600",
"|.	c #FFC300",
"1.	c #FFCC00",
"2.	c #E9A300",
"3.	c #694100",
"4.	c #080200",
"5.	c #5E3B00",
"6.	c #C07E00",
"7.	c #FFB700",
"8.	c #E9A400",
"9.	c #6A4200",
"0.	c #070200",
"a.	c #100600",
"b.	c #FFAE00",
"c.	c #FEAC00",
"d.	c #EAA400",
"e.	c #6E4400",
"f.	c #FFAD00",
"g.	c #FFCE00",
"h.	c #ECA500",
"i.	c #6C4200",
"j.	c #653F00",
"k.	c #DE9400",
"l.	c #FCAF00",
"m.	c #FFBC00",
"n.	c #D38E00",
"o.	c #643D00",
"p.	c #432700",
"q.	c #784B00",
"r.	c #A86D00",
"s.	c #F7A700",
"t.	c #EDA100",
"u.	c #A96B00",
"v.	c #774A00",
"w.	c #422400",
"x.	c #140600",
"y.	c #563300",
"z.	c #D08B00",
"A.	c #CB8900",
"B.	c #4E2D00",
"C.	c #130600",
"D.	c #341B00",
"E.	c #956200",
"F.	c #CC8900",
"G.	c #F8AB00",
"H.	c #C48300",
"I.	c #341C00",
"J.	c #5A3500",
"K.	c #BF7F00",
"L.	c #C78500",
"M.	c #361E00",
"N.	c #180900",
"O.	c #946100",
"P.	c #EC9F00",
"Q.	c #B87A00",
"R.	c #351C00",
"S.	c #5A3700",
"T.	c #7C4F00",
"U.	c #0B0300",
"V.	c #0A0200",
"                          . + + + + + + + + .                           ",
"                        @ # $ % & & & & % $ # @                         ",
"                  * * * = - ; > , , , , > ; - = * * *                   ",
"                ' ) ! ~ { ] ^ / ( _ _ ( / ^ ] { ~ ! ) '                 ",
"              : < [ } | 1 2 3 _ 4 4 4 4 _ 3 2 1 | } [ < :               ",
"            + 5 6 7 8 ^ ^ 3 4 4 4 4 4 4 4 4 3 ^ ^ 8 7 6 5 +             ",
"          9 0 a b c d d / _ 4 4 4 4 4 4 4 4 _ / d d c b a 0 9           ",
"        e f g h i 3 4 4 4 4 4 4 4 4 4 4 4 4 4 4 4 4 3 i h g f e         ",
"      j k l m 4 / 4 4 4 4 4 4 4 4 4 4 4 4 4 4 4 4 4 4 / 4 m l k j       ",
"    e n o p q r _ 4 4 4 4 4 4 4 4 4 4 4 4 4 4 4 4 4 4 _ r q p o n e     ",
"  * e s t ^ u 4 4 4 4 4 4 4 4 4 4 4 4 4 4 4 4 4 4 4 4 4 4 u ^ t s e *   ",
"  * e v w ( _ 4 4 4 4 4 4 4 4 4 4 4 4 4 4 4 4 4 4 4 4 4 4 _ ( w v e *   ",
"  * x y z 4 _ 4 4 4 4 4 4 4 4 4 4 4 _ _ _ 4 4 4 4 4 4 4 4 _ 4 z y x *   ",
"  A B C D 4 4 4 4 4 4 4 4 4 4 4 4 E w F G r _ 4 4 4 4 4 4 4 4 D C B A   ",
"H I J K L 4 4 4 4 4 4 4 4 4 4 4 r M N O P ^ _ 4 4 4 4 4 4 4 4 L K J I H ",
"Q R S T r 4 4 4 4 4 4 4 4 4 4 4 r U V W X c ( 4 4 4 4 4 4 4 4 r T S R Q ",
"Y Z ^ _ 4 4 4 4 4 4 4 4 4 4 4 4 4 `  ...+.L ( 4 4 4 4 r 4 4 4 4 _ ^ Z Y ",
"Y @.T 4 4 4 4 4 4 4 4 4 4 4 4 4 r #. .$.+.L ( 4 4 4 4 4 4 4 4 4 4 T @.Y ",
"Y %.T 4 4 4 4 4 4 4 4 4 4 4 u G &.*.~ $.+.L ( 4 4 4 4 4 4 4 4 4 4 T %.Y ",
"Y %.T 4 4 4 4 4 4 4 4 4 4 ( 8 =.-.;.>.$.,.c ( 4 4 4 r 4 4 4 4 4 4 T %.Y ",
"Y @.T 4 4 4 4 4 4 4 4 4 u ^ '.+.).* * $.!.~.^ u 4 4 4 4 4 4 4 4 4 T @.Y ",
"Y Z ^ _ 4 4 4 4 4 4 4 ( {.].^.$ /.* * (.$ ^.].{.( 4 4 4 4 4 4 4 _ ^ Z Y ",
"Q _.c r 4 4 4 4 4 4 4 d :.-.<.[.        [.<.-.:.d 4 4 4 4 4 4 4 r c _.Q ",
"Q }.t '.|.4 4 4 4 4 4 1.2.3.4.*         * 4.3.2.1.4 4 4 4 4 4 |.'.t }.Q ",
"  5.I 6.7.4 4 4 4 4 4 1.8.9.0.*         * 0.9.8.1.4 4 4 4 4 4 7.6.I 5.  ",
"  0.a.< b.4 4 4 4 4 4 1.8.9.0.*         * 0.9.8.1.4 4 4 4 4 4 b.< a.0.  ",
"  * e s c._ _ 4 4 4 4 1.d.9.0.*         * 0.9.d.1.4 4 4 4 _ _ c.s e *   ",
"  * e e.f./ _ 4 4 4 4 g.h.i.0.*         * 0.i.h.g.4 4 4 4 _ / f.e.e *   ",
"    e j.k.l.L r 4 r m.q n.o.0.            0.o.n.q m.r 4 r L l.k.j.e     ",
"      p.q.r.s._ d r t.u.v.w.                w.v.u.t.r d _ s.r.q.p.      ",
"        x.y.z.L 4 3 A.B.C.                    C.B.A.3 4 L z.y.x.        ",
"        * D.E.F.G.L H.D.*                     * D.H.L G.F.E.D.*         ",
"            I.J.K.7.L.M.*                     * M.L.7.K.J.I.            ",
"            * N.O.P.Q.R.*                     * R.Q.P.O.N.*             ",
"                S.T.9.9                         9 9.T.S.                ",
"                . U.V.                            V.U..                 "};
