/* XPM */
static xpm_row_t const pacmanUp[] = {
"36 36 179 2",
"  	c None",
". 	c #0B0200",
"+ 	c #0B0300",
"@ 	c #0A0200",
"# 	c #5A3700",
"$ 	c #7C4F00",
"% 	c #6A4200",
"& 	c #281300",
"* 	c #000000",
"= 	c #180900",
"- 	c #946100",
"; 	c #EC9F00",
"> 	c #B87A00",
", 	c #351C00",
"' 	c #341C00",
") 	c #5A3500",
"! 	c #BF7F00",
"~ 	c #FFB700",
"{ 	c #C78500",
"] 	c #361E00",
"^ 	c #341B00",
"/ 	c #956200",
"( 	c #CC8900",
"_ 	c #F8AB00",
": 	c #FFBE00",
"< 	c #C48300",
"[ 	c #140600",
"} 	c #563300",
"| 	c #D08B00",
"1 	c #FFC700",
"2 	c #FFC400",
"3 	c #CB8900",
"4 	c #4E2D00",
"5 	c #130600",
"6 	c #432700",
"7 	c #784B00",
"8 	c #A86D00",
"9 	c #F7A700",
"0 	c #FFC800",
"a 	c #FFCB00",
"b 	c #FFC600",
"c 	c #EDA100",
"d 	c #A96B00",
"e 	c #774A00",
"f 	c #422400",
"g 	c #010000",
"h 	c #653F00",
"i 	c #DE9400",
"j 	c #FCAF00",
"k 	c #FFBC00",
"l 	c #FFB200",
"m 	c #D38E00",
"n 	c #643D00",
"o 	c #070200",
"p 	c #6E4400",
"q 	c #FFAD00",
"r 	c #FFCA00",
"s 	c #FFCE00",
"t 	c #ECA500",
"u 	c #6C4200",
"v 	c #6B4300",
"w 	c #FEAC00",
"x 	c #FFCC00",
"y 	c #EAA400",
"z 	c #100600",
"A 	c #784C00",
"B 	c #FFAE00",
"C 	c #E9A400",
"D 	c #5E3B00",
"E 	c #865500",
"F 	c #C07E00",
"G 	c #1C0A00",
"H 	c #9C6600",
"I 	c #F5A700",
"J 	c #FFB400",
"K 	c #FFC300",
"L 	c #E9A300",
"M 	c #694100",
"N 	c #080200",
"O 	c #AB7200",
"P 	c #FFBF00",
"Q 	c #F4AB00",
"R 	c #905C00",
"S 	c #422600",
"T 	c #281200",
"U 	c #1C0B00",
"V 	c #AB7300",
"W 	c #FFC100",
"X 	c #FFC900",
"Y 	c #FFBB00",
"Z 	c #ED9C00",
"` 	c #C88300",
" .	c #7E5100",
"..	c #190B00",
"+.	c #180A00",
"@.	c #AA7300",
"#.	c #FFC000",
"$.	c #FFC500",
"%.	c #FFB500",
"&.	c #9E6700",
"*.	c #1B0C00",
"=.	c #241000",
"-.	c #A36A00",
";.	c #AA7200",
">.	c #A46A00",
",.	c #130900",
"'.	c #573500",
").	c #DA9200",
"!.	c #FFC200",
"~.	c #3B2200",
"{.	c #B77A00",
"].	c #F7AA00",
"^.	c #FFB800",
"/.	c #4A2C00",
"(.	c #D99200",
"_.	c #1A0B00",
":.	c #D99300",
"<.	c #A76D00",
"[.	c #FFB600",
"}.	c #AA7000",
"|.	c #2E1800",
"1.	c #593600",
"2.	c #DD9600",
"3.	c #180700",
"4.	c #C78400",
"5.	c #EC9D00",
"6.	c #D18B00",
"7.	c #805100",
"8.	c #9B6400",
"9.	c #F0A500",
"0.	c #2A1600",
"a.	c #3D2300",
"b.	c #915E00",
"c.	c #FFB100",
"d.	c #F6A900",
"e.	c #FEAD00",
"f.	c #FFBD00",
"g.	c #020000",
"h.	c #6D4300",
"i.	c #FDAC00",
"j.	c #6C4400",
"k.	c #583600",
"l.	c #AF7500",
"m.	c #D79000",
"n.	c #261100",
"o.	c #3B2100",
"p.	c #764A00",
"q.	c #E49800",
"r.	c #402300",
"s.	c #BA7A00",
"t.	c #F3A900",
"u.	c #FFB900",
"v.	c #653E00",
"w.	c #915D00",
"x.	c #DC9100",
"y.	c #0C0300",
"z.	c #2F1800",
"A.	c #A56C00",
"B.	c #FAB100",
"C.	c #0E0300",
"D.	c #B87C00",
"E.	c #C68600",
"F.	c #C38300",
"G.	c #D89000",
"H.	c #FFAF00",
"I.	c #311B00",
"J.	c #3E2400",
"K.	c #412600",
"L.	c #6E4500",
"M.	c #D99100",
"N.	c #341E00",
"O.	c #B37600",
"P.	c #F4A900",
"Q.	c #FBB200",
"R.	c #FBB100",
"S.	c #271300",
"T.	c #674000",
"U.	c #835300",
"V.	c #835200",
"                . + @                             @ + .                 ",
"                # $ % &                         & % $ #                 ",
"            * = - ; > , *                     * , > ; - = *             ",
"            ' ) ! ~ { ] *                     * ] { ~ ! ) '             ",
"        * ^ / ( _ : < ^ *                     * ^ < : _ ( / ^ *         ",
"        [ } | : 1 2 3 4 5                     5 4 3 2 1 : | } [         ",
"      6 7 8 9 0 a b c d e f                 f e d c b a 0 9 8 7 6       ",
"    g h i j : b 1 b k l m n o             o n m l k b 1 b : j i h g     ",
"  * g p q r 0 1 1 1 1 s t u o *         * o u t s 1 1 1 1 0 r q p g *   ",
"  * g v w 0 0 1 1 1 1 x y % o *         * o % y x 1 1 1 1 0 0 w v g *   ",
"  o z A B 1 1 1 1 1 1 x C % o *         * o % C x 1 1 1 1 1 1 B A z o   ",
"  D E F ~ 1 1 1 1 1 1 x C % o *         * o % C x 1 1 1 1 1 1 ~ F E D   ",
"G H I J K 1 1 1 1 1 1 x L M N *         * N M L x 1 1 1 1 1 1 K J I H G ",
"G O P b 1 1 1 1 1 1 1 a Q R S T         T S R Q a 1 1 1 1 1 1 1 b P O G ",
"U V W 0 1 1 1 1 1 1 1 X Y Z `  ...* * +. .` Z Y X 1 1 1 1 1 1 1 0 W V U ",
"U @.#.1 1 1 1 1 1 1 1 1 $.W %.&.*.* * =.-.J W $.1 1 1 1 1 1 1 1 1 #.@.U ",
"U ;.#.1 1 1 1 1 1 b 1 1 1 X P >.*.,.'.R ).!.X 1 1 1 1 1 1 1 1 1 1 #.;.U ",
"U ;.#.1 1 1 1 1 1 1 1 1 1 X : -.*.~.{.].^.$.1 1 1 1 1 1 1 1 1 1 1 #.;.U ",
"U @.#.1 1 1 1 1 1 1 1 1 1 X : -.*./.(.b 1 1 1 1 1 1 1 1 1 1 1 1 1 #.@.U ",
"U V W 0 1 1 1 1 b 1 1 1 1 X : -._./.:.1 1 1 1 1 1 1 1 1 1 1 1 1 0 W V U ",
"G <.[.#.b 1 1 1 1 1 1 1 1 X P }.|.1.2.b 1 1 1 1 1 1 1 1 1 1 1 b #.[.<.G ",
"3.E 4.5.: 1 1 1 1 1 1 1 1 0 W 6.7.8.9.b 1 1 1 1 1 1 1 1 1 1 1 : 5.4.E 3.",
"  0.a.b.c.1 1 1 1 1 1 1 1 0 b ^.d.e.f.1 1 1 1 1 1 1 1 1 1 1 1 c.b.a.0.  ",
"  * g.h.i.1 0 1 1 1 1 1 1 1 1 0 0 0 1 1 1 1 1 1 1 1 1 1 1 0 1 i.h.g.*   ",
"  * g j.e.X 0 1 1 1 1 1 1 1 1 1 1 1 1 1 1 1 1 1 1 1 1 1 1 0 X e.j.g *   ",
"  * g v I W $.1 1 1 1 1 1 1 1 1 1 1 1 1 1 1 1 1 1 1 1 1 1 $.W I v g *   ",
"    g k.l.m.l b 0 1 1 1 1 1 1 1 1 1 1 1 1 1 1 1 1 1 1 0 b l m.l.k.g     ",
"      n.o.p.q.1 r 1 1 1 1 1 1 1 1 1 1 1 1 1 1 1 1 1 1 r 1 q.p.o.n.      ",
"        g r.s.t.u.2 1 1 1 1 1 1 1 1 1 1 1 1 1 1 1 1 2 u.t.s.r.g         ",
"          & v.w.x.P a a r 0 1 1 1 1 1 1 1 1 0 r a a P x.w.v.&           ",
"            y.z.A.B.!.W W 2 1 1 1 1 1 1 1 1 2 W W !.B.A.z.y.            ",
"              C.A D.E.F.G.H.2 0 1 1 1 1 0 2 H.G.F.E.D.A C.              ",
"                I.J.K.~.L.M.W r X 0 0 X r W M.L.~.K.J.I.                ",
"                  * * * N.O.P.Q.R.R.R.R.Q.P.O.N.* * *                   ",
"                        S.T. .U.V.V.V.V.U. .T.S.                        ",
"                          . y.y.y.y.y.y.y.y..                           "};
